<?xml version="1.0" encoding="UTF-8" standalone="no"?><!DOCTYPE svg PUBLIC "-//W3C//DTD SVG 1.1//EN" "http://www.w3.org/Graphics/SVG/1.1/DTD/svg11.dtd"><svg width="162px" height="48px" version="1.1" xmlns="http://www.w3.org/2000/svg" xmlns:xlink="http://www.w3.org/1999/xlink" xml:space="preserve" xmlns:serif="http://www.serif.com/" style="fill-rule:evenodd;clip-rule:evenodd;stroke-linejoin:round;stroke-miterlimit:2;"><path d="M162,12C162,5.377 156.623,0 150,0L12,0C5.377,0 0,5.377 0,12L0,36C0,42.623 5.377,48 12,48L150,48C156.623,48 162,42.623 162,36L162,12Z"/><g transform="matrix(0.938272,0,0,0.791667,5,5)"><path d="M162,8.842C162,3.962 158.657,0 154.539,0L7.461,0C3.343,0 0,3.962 0,8.842L0,39.158C0,44.038 3.343,48 7.461,48L154.539,48C158.657,48 162,44.038 162,39.158L162,8.842Z" style="fill:white;"/></g><g transform="matrix(0.518223,0,0,0.518223,2.60193,9.08926)"><g transform="matrix(30.8747,0,0,30.8747,22,40)"><path d="M0.072,-0.727L0.233,-0.727L0.449,-0.2L0.457,-0.2L0.673,-0.727L0.835,-0.727L0.835,-0L0.708,-0L0.708,-0.5L0.701,-0.5L0.5,-0.002L0.406,-0.002L0.205,-0.501L0.198,-0.501L0.198,-0L0.072,-0L0.072,-0.727Z" style="fill-rule:nonzero;"/></g><g transform="matrix(30.8747,0,0,30.8747,49.9802,40)"><path d="M0.165,-0L0.025,-0L0.281,-0.727L0.443,-0.727L0.7,-0L0.559,-0L0.365,-0.578L0.359,-0.578L0.165,-0ZM0.17,-0.285L0.553,-0.285L0.553,-0.179L0.17,-0.179L0.17,-0.285Z" style="fill-rule:nonzero;"/></g><g transform="matrix(30.8747,0,0,30.8747,72.3249,40)"><path d="M0.318,-0L0.072,-0L0.072,-0.727L0.323,-0.727C0.395,-0.727 0.457,-0.713 0.509,-0.684C0.561,-0.655 0.601,-0.613 0.629,-0.559C0.657,-0.505 0.671,-0.44 0.671,-0.364C0.671,-0.289 0.657,-0.223 0.629,-0.169C0.601,-0.115 0.561,-0.073 0.508,-0.044C0.455,-0.015 0.392,-0 0.318,-0ZM0.203,-0.114L0.312,-0.114C0.362,-0.114 0.405,-0.123 0.439,-0.142C0.472,-0.16 0.498,-0.188 0.515,-0.225C0.532,-0.262 0.54,-0.309 0.54,-0.364C0.54,-0.42 0.532,-0.466 0.515,-0.503C0.498,-0.54 0.473,-0.567 0.439,-0.586C0.406,-0.604 0.365,-0.613 0.316,-0.613L0.203,-0.613L0.203,-0.114Z" style="fill-rule:nonzero;"/></g><g transform="matrix(30.8747,0,0,30.8747,94.6916,40)"><path d="M0.072,-0L0.072,-0.727L0.545,-0.727L0.545,-0.617L0.203,-0.617L0.203,-0.419L0.52,-0.419L0.52,-0.309L0.203,-0.309L0.203,-0.11L0.548,-0.11L0.548,-0L0.072,-0Z" style="fill-rule:nonzero;"/></g><g transform="matrix(30.8747,0,0,30.8747,121.115,40)"><path d="M0.072,-0L0.072,-0.727L0.35,-0.727C0.403,-0.727 0.446,-0.719 0.481,-0.703C0.516,-0.686 0.542,-0.664 0.56,-0.635C0.577,-0.607 0.586,-0.575 0.586,-0.539C0.586,-0.509 0.58,-0.484 0.569,-0.463C0.558,-0.442 0.542,-0.425 0.523,-0.412C0.504,-0.399 0.482,-0.39 0.459,-0.384L0.459,-0.377C0.485,-0.375 0.509,-0.367 0.533,-0.353C0.557,-0.339 0.576,-0.319 0.592,-0.293C0.607,-0.267 0.614,-0.235 0.614,-0.198C0.614,-0.161 0.605,-0.127 0.587,-0.097C0.569,-0.067 0.541,-0.043 0.505,-0.026C0.468,-0.009 0.422,-0 0.366,-0L0.072,-0ZM0.203,-0.11L0.345,-0.11C0.393,-0.11 0.427,-0.119 0.449,-0.138C0.47,-0.156 0.48,-0.18 0.48,-0.208C0.48,-0.23 0.475,-0.249 0.464,-0.267C0.454,-0.284 0.439,-0.298 0.419,-0.308C0.399,-0.318 0.376,-0.323 0.349,-0.323L0.203,-0.323L0.203,-0.11ZM0.203,-0.418L0.334,-0.418C0.357,-0.418 0.377,-0.422 0.395,-0.431C0.413,-0.439 0.428,-0.451 0.438,-0.466C0.449,-0.482 0.454,-0.5 0.454,-0.522C0.454,-0.55 0.444,-0.573 0.425,-0.591C0.405,-0.609 0.375,-0.619 0.337,-0.619L0.203,-0.619L0.203,-0.418Z" style="fill-rule:nonzero;"/></g><g transform="matrix(30.8747,0,0,30.8747,141.409,40)"><path d="M0.022,-0.727L0.171,-0.727L0.349,-0.406L0.356,-0.406L0.534,-0.727L0.683,-0.727L0.418,-0.271L0.418,-0L0.287,-0L0.287,-0.271L0.022,-0.727Z" style="fill-rule:nonzero;"/></g><g transform="matrix(30.8747,0,0,30.8747,170.826,40)"><path d="M0.694,-0.482L0.561,-0.482C0.558,-0.504 0.551,-0.523 0.54,-0.54C0.53,-0.557 0.518,-0.571 0.502,-0.583C0.487,-0.595 0.47,-0.604 0.451,-0.61C0.432,-0.616 0.411,-0.619 0.388,-0.619C0.349,-0.619 0.314,-0.609 0.283,-0.589C0.253,-0.57 0.229,-0.541 0.212,-0.503C0.194,-0.465 0.186,-0.418 0.186,-0.364C0.186,-0.308 0.194,-0.261 0.212,-0.223C0.229,-0.185 0.253,-0.157 0.284,-0.137C0.314,-0.118 0.349,-0.108 0.388,-0.108C0.41,-0.108 0.43,-0.111 0.449,-0.117C0.468,-0.123 0.486,-0.131 0.501,-0.143C0.516,-0.154 0.529,-0.168 0.54,-0.185C0.55,-0.201 0.557,-0.22 0.561,-0.241L0.694,-0.241C0.689,-0.206 0.679,-0.174 0.662,-0.143C0.646,-0.113 0.624,-0.086 0.598,-0.063C0.571,-0.04 0.54,-0.022 0.505,-0.009C0.469,0.003 0.43,0.01 0.386,0.01C0.322,0.01 0.265,-0.005 0.215,-0.034C0.165,-0.064 0.125,-0.107 0.097,-0.163C0.068,-0.219 0.053,-0.286 0.053,-0.364C0.053,-0.442 0.068,-0.509 0.097,-0.565C0.126,-0.621 0.166,-0.663 0.216,-0.693C0.266,-0.722 0.323,-0.737 0.386,-0.737C0.427,-0.737 0.464,-0.732 0.499,-0.72C0.534,-0.709 0.565,-0.692 0.592,-0.67C0.62,-0.648 0.642,-0.622 0.66,-0.59C0.677,-0.558 0.689,-0.522 0.694,-0.482Z" style="fill-rule:nonzero;"/></g><g transform="matrix(30.8747,0,0,30.8747,193.5,40)"><path d="M0.165,-0L0.025,-0L0.281,-0.727L0.443,-0.727L0.7,-0L0.559,-0L0.365,-0.578L0.359,-0.578L0.165,-0ZM0.17,-0.285L0.553,-0.285L0.553,-0.179L0.17,-0.179L0.17,-0.285Z" style="fill-rule:nonzero;"/></g><g transform="matrix(30.8747,0,0,30.8747,213.564,40)"><path d="M0.022,-0.727L0.171,-0.727L0.349,-0.406L0.356,-0.406L0.534,-0.727L0.683,-0.727L0.418,-0.271L0.418,-0L0.287,-0L0.287,-0.271L0.022,-0.727Z" style="fill-rule:nonzero;"/></g><g transform="matrix(30.8747,0,0,30.8747,235.316,40)"><path d="M0.318,-0L0.072,-0L0.072,-0.727L0.323,-0.727C0.395,-0.727 0.457,-0.713 0.509,-0.684C0.561,-0.655 0.601,-0.613 0.629,-0.559C0.657,-0.505 0.671,-0.44 0.671,-0.364C0.671,-0.289 0.657,-0.223 0.629,-0.169C0.601,-0.115 0.561,-0.073 0.508,-0.044C0.455,-0.015 0.392,-0 0.318,-0ZM0.203,-0.114L0.312,-0.114C0.362,-0.114 0.405,-0.123 0.439,-0.142C0.472,-0.16 0.498,-0.188 0.515,-0.225C0.532,-0.262 0.54,-0.309 0.54,-0.364C0.54,-0.42 0.532,-0.466 0.515,-0.503C0.498,-0.54 0.473,-0.567 0.439,-0.586C0.406,-0.604 0.365,-0.613 0.316,-0.613L0.203,-0.613L0.203,-0.114Z" style="fill-rule:nonzero;"/></g><g transform="matrix(30.8747,0,0,30.8747,257.683,40)"><path d="M0.669,-0.727L0.669,-0L0.552,-0L0.21,-0.495L0.203,-0.495L0.203,-0L0.072,-0L0.072,-0.727L0.19,-0.727L0.532,-0.232L0.538,-0.232L0.538,-0.727L0.669,-0.727Z" style="fill-rule:nonzero;"/></g></g></svg>